<?xml version="1.0" encoding="UTF-8" standalone="no"?>
<svg
   xmlns:dc="http://purl.org/dc/elements/1.1/"
   xmlns:cc="http://creativecommons.org/ns#"
   xmlns:rdf="http://www.w3.org/1999/02/22-rdf-syntax-ns#"
   xmlns:svg="http://www.w3.org/2000/svg"
   xmlns="http://www.w3.org/2000/svg"
   xmlns:sodipodi="http://sodipodi.sourceforge.net/DTD/sodipodi-0.dtd"
   xmlns:inkscape="http://www.inkscape.org/namespaces/inkscape"
   enable-background="new 0 0 32 32"
   height="32px"
   id="Layer_1"
   version="1.1"
   viewBox="0 0 32 32"
   width="32px"
   x="0px"
   xml:space="preserve"
   y="0px"
   inkscape:version="0.48.4 r9939"
   sodipodi:docname="nav-icon.svg"><metadata
     id="metadata12"><rdf:RDF><cc:Work
         rdf:about=""><dc:format>image/svg+xml</dc:format><dc:type
           rdf:resource="http://purl.org/dc/dcmitype/StillImage" /><dc:title></dc:title></cc:Work></rdf:RDF></metadata><defs
     id="defs10" /><sodipodi:namedview
     pagecolor="#ffffff"
     bordercolor="#666666"
     borderopacity="1"
     objecttolerance="10"
     gridtolerance="10"
     guidetolerance="10"
     inkscape:pageopacity="0"
     inkscape:pageshadow="2"
     inkscape:window-width="793"
     inkscape:window-height="908"
     id="namedview8"
     showgrid="false"
     inkscape:zoom="14.75"
     inkscape:cx="14.571252"
     inkscape:cy="15.947284"
     inkscape:window-x="462"
     inkscape:window-y="135"
     inkscape:window-maximized="0"
     inkscape:current-layer="tag" /><g
     id="tag"><path
       clip-rule="evenodd"
       d="m 31.391,14.082661 -5,-7.1186441 C 25.661,5.9238051 24.379,5.2911356 23,5.2911356 l -19,0 c -2.209,0 -4,1.5936864 -4,3.559322 L 0,23.087745 c 0,1.965637 1.791,3.559323 4,3.559323 l 19,0 c 1.379,0 2.66,-0.63267 3.391,-1.673771 l 5,-7.118645 c 0.812,-1.15233 0.812,-2.617881 0,-3.771991 z m -2.441763,2.587462 -4.796609,6.999768 C 23.785628,24.193111 23.692996,24.201604 23,24.203803 L 4,24.264134 C 2.897007,24.267634 2.8230182,23.826993 2.8135593,22.846436 L 2.6779661,8.7901301 C 2.6684986,7.8086832 2.897,7.7343989 4,7.7343989 l 18.932203,0 c 0.693,0 0.785628,0.071912 1.152628,0.594241 l 4.864406,6.8170071 c 0.403,0.57394 0.403,0.952314 0,1.524476 z"
       id="path4"
       style="fill:#7f7d7e;fill-opacity:1;fill-rule:evenodd"
       inkscape:connector-curvature="0"
       sodipodi:nodetypes="ccsssssscccccssssssccc" /><path
       clip-rule="evenodd"
       d="m 21.644067,12.59622 c -1.658,0 -3.610169,1.74978 -3.610169,3.40678 0,1.657 2.019966,3.474576 3.677966,3.474576 1.656,0 3.610169,-1.818576 3.610169,-3.474576 0,-1.657 -2.021966,-3.40678 -3.677966,-3.40678 z m 0.0678,5.40778 c -1.105,0 -2,-0.896 -2,-2 0,-1.104 0.895,-2 2,-2 1.104,0 2,0.896 2,2 0,1.103 -0.896,2 -2,2 z"
       id="path6"
       style="fill:#8a8a8a;fill-opacity:1;fill-rule:evenodd"
       inkscape:connector-curvature="0"
       sodipodi:nodetypes="ssssssssss" /></g></svg>